<svg xmlns="http://www.w3.org/2000/svg" version="1.1" xmlns:xlink="http://www.w3.org/1999/xlink" xmlns:svgjs="http://svgjs.dev/svgjs" width="1000" height="1046" viewBox="0 0 1000 1046"><g transform="matrix(1,0,0,1,1.014429141920516,0.42350157520252196)"><svg viewBox="0 0 236 247" data-background-color="#ffffff" preserveAspectRatio="xMidYMid meet" height="1046" width="1000" xmlns="http://www.w3.org/2000/svg" xmlns:xlink="http://www.w3.org/1999/xlink"><g id="tight-bounds" transform="matrix(1,0,0,1,-0.23940513142864006,-0.10000467406788971)"><svg viewBox="0 0 236.4788104089219 247.2" height="247.2" width="236.4788104089219"><g><svg viewBox="0 0 236.4788104089219 247.2" height="247.2" width="236.4788104089219"><g><svg viewBox="0 0 236.4788104089219 247.2" height="247.2" width="236.4788104089219"><g id="textblocktransform"><svg viewBox="0 0 236.4788104089219 247.2" height="247.2" width="236.4788104089219" id="textblock"><g><svg viewBox="0 0 236.4788104089219 247.2" height="247.2" width="236.4788104089219"><g transform="matrix(1,0,0,1,0,0)"><svg width="236.4788104089219" viewBox="-0.6499999761581421 -36 38.60000228881836 40.349998474121094" height="247.2" data-palette-color="#1f4374"><path d="M-0.65 4.35L-0.65 4.35Q-0.35 3.65 0.95 0.78 2.25-2.1 4.4-6.78 6.55-11.45 9.3-17.55 12.05-23.65 15.25-30.75L15.25-30.75Q15.45-31.15 15.6-31.68 15.75-32.2 15.75-32.7L15.75-32.7Q15.75-33.2 15.43-33.55 15.1-33.9 14.15-33.9L14.15-33.9Q12.05-33.9 10.68-32.52 9.3-31.15 8.65-29.15 8-27.15 8-25.15L8-25.15Q8-24.7 8.03-24.25 8.05-23.8 8.15-23.35L8.15-23.35Q7.1-23.35 6.45-24.03 5.8-24.7 5.5-25.73 5.2-26.75 5.2-27.6L5.2-27.6Q5.2-29.2 6.1-30.7 7-32.2 8.45-33.43 9.9-34.65 11.65-35.33 13.4-36 15.1-36L15.1-36Q16.85-36 18.03-35.05 19.2-34.1 19.83-31.6 20.45-29.1 20.45-24.4L20.45-24.4Q20.45-21.25 20.23-17.8 20-14.35 19.75-11.13 19.5-7.9 19.4-5.35L19.4-5.35Q20.3-8.35 21.78-11.78 23.25-15.2 25-18.57 26.75-21.95 28.45-24.9 30.15-27.85 31.53-30.05 32.9-32.25 33.6-33.25L33.6-33.25Q34.3-34.3 34.8-34.83 35.3-35.35 36.15-35.35L36.15-35.35Q36.85-35.35 37.95-34.95L37.95-34.95Q37.6-34.05 36.98-32.18 36.35-30.3 35.7-27.65L35.7-27.65Q34.9-24.65 34.13-20.88 33.35-17.1 32.7-13.2 32.05-9.3 31.65-5.88 31.25-2.45 31.25 0L31.25 0Q31.25 1.15 31.35 1.8 31.45 2.45 31.65 2.98 31.85 3.5 32.1 4.35L32.1 4.35Q30.25 4.35 29.28 3.78 28.3 3.2 27.98 1.9 27.65 0.6 27.65-1.55L27.65-1.55Q27.65-7.35 29.08-13.95 30.5-20.55 32.4-27.6L32.4-27.6Q30.95-25.7 29.4-22.9 27.85-20.1 26.33-16.9 24.8-13.7 23.4-10.53 22-7.35 20.95-4.65 19.9-1.95 19.3-0.15L19.3-0.15Q18.95-0.05 18.82 0 18.7 0.05 18.45 0.05L18.45 0.05Q16.95 0.05 16.53-1.73 16.1-3.5 16.1-6.65L16.1-6.65Q16.1-8.65 16.2-11.28 16.3-13.9 16.43-16.68 16.55-19.45 16.65-22.08 16.75-24.7 16.75-26.75L16.75-26.75Q16.75-27.65 16.73-28.33 16.7-29 16.65-29.6L16.65-29.6Q12.75-20.45 10.08-13.98 7.4-7.5 5.55-3.45 3.7 0.6 2.25 2.48 0.8 4.35-0.65 4.35Z" opacity="1" transform="matrix(1,0,0,1,0,0)" fill="#1f4374" class="undefined-text-0" data-fill-palette-color="primary" id="text-0"></path></svg></g></svg></g></svg></g></svg></g><g></g></svg></g><defs></defs></svg><rect width="236.4788104089219" height="247.2" fill="none" stroke="none" visibility="hidden"></rect></g></svg></g></svg>